<svg width="307" height="93" viewBox="0 0 307 93" fill="none" xmlns="http://www.w3.org/2000/svg">
<rect y="26.3911" width="304.435" height="66.3692" transform="rotate(-2 0 26.3911)" fill="#D83FAF"/>
<path d="M105.061 64.9074L106.379 63.4545L105.659 63.5177C104.799 63.573 103.986 63.8803 103.219 64.4394C102.478 64.9976 102.117 65.5298 102.134 66.0362C102.142 66.2641 102.25 66.4504 102.458 66.5952C102.562 66.6676 102.677 66.7016 102.804 66.6972C103.209 66.6831 103.961 66.0865 105.061 64.9074ZM117.862 36.2471C118.658 35.8138 119.601 35.5781 120.689 35.54C121.474 35.5126 122.162 35.6154 122.753 35.8482C124.578 36.5703 125.54 38.3491 125.639 41.1847C125.705 43.0583 125.325 44.8713 124.499 46.6239C123.673 48.3764 122.791 49.2691 121.854 49.3018C121.728 49.3062 121.626 49.2971 121.549 49.2744C120.604 49.0793 120.117 48.5386 120.086 47.6525C120.065 47.0449 120.282 46.3782 120.738 45.6525C121.65 44.1758 122.079 42.6652 122.025 41.1208C121.996 40.2853 121.798 39.6966 121.431 39.3545C121.248 39.1835 121.067 39.101 120.89 39.1072C120.763 39.1116 120.474 39.1851 120.023 39.3276C118.094 39.978 116.479 42.3538 115.177 46.4551C114.674 48.0189 114.043 50.6265 113.283 54.278C112.522 57.904 112.153 60.0462 112.176 60.7045L112.22 60.8551C112.456 61.1003 113.359 61.5504 114.928 62.2053C116.497 62.835 117.548 63.1785 118.082 63.2359C118.108 63.235 118.171 63.2455 118.274 63.2673C118.375 63.2637 118.451 63.2611 118.501 63.2593C119.565 63.2222 120.827 62.7218 122.289 61.7582C123.777 60.7937 125.314 59.4599 126.903 57.7567C128.173 56.3942 129.114 55.0432 129.727 53.7037C130.103 52.8541 130.436 52.2467 130.728 51.8817C131.045 51.5157 131.405 51.3257 131.811 51.3115C132.013 51.3045 132.23 51.3349 132.46 51.4029C132.92 51.5136 133.273 51.8055 133.517 52.2786C133.626 52.4776 133.686 52.7416 133.697 53.0708C133.728 53.9569 133.324 55.0864 132.485 56.4591C131.671 57.8311 130.529 59.2651 129.061 60.7613C125.829 64.0427 122.932 65.9944 120.368 66.6162C119.74 66.7902 119.122 66.8878 118.515 66.9091C117.224 66.9541 115.484 66.4952 113.296 65.5324C111.544 64.7317 110.579 64.3344 110.402 64.3406C110.225 64.3468 109.847 64.7656 109.267 65.597C107.17 68.6867 105.02 70.2701 102.817 70.347C102.235 70.3673 101.712 70.2715 101.248 70.0596C100.526 69.7046 99.8828 69.0679 99.3184 68.1498C98.7531 67.2062 98.4559 66.3167 98.4267 65.4812C98.417 65.2027 98.4462 64.9482 98.5141 64.7177C98.6937 64.0524 99.126 63.3656 99.811 62.6572C100.495 61.9236 101.335 61.2985 102.331 60.7821C103.028 60.4029 103.602 60.1547 104.054 60.0375C104.532 59.9195 105.238 59.8314 106.174 59.7734L108.335 59.5839L108.565 58.5492C109.847 52.4207 110.886 48.0625 111.683 45.4744C112.479 42.8611 113.396 40.8265 114.435 39.3706C114.99 38.5655 115.501 37.9519 115.968 37.53C116.434 37.0828 117.065 36.6552 117.862 36.2471ZM132.758 63.5599C132.405 62.8878 132.19 62.5531 132.114 62.5558C131.988 62.5602 131.851 62.9959 131.704 63.8629C131.581 64.7037 131.519 65.4663 131.518 66.1508L131.525 66.3787C131.563 67.4673 131.785 68.0046 132.19 67.9904C132.494 67.9798 133.127 67.6028 134.09 66.8595L134.903 66.1847L134.114 65.3757C133.455 64.6636 133.003 64.0583 132.758 63.5599ZM139.424 51.9202C139.23 51.4454 138.905 51.2159 138.449 51.2318C137.993 51.2477 137.495 51.5059 136.955 52.0064C136.44 52.506 136.019 53.1544 135.692 53.9517C135.342 54.8004 135.195 56.0476 135.253 57.6933C135.338 60.1491 135.76 61.6934 136.517 62.326C136.753 62.5459 136.921 62.6541 137.023 62.6505C137.124 62.647 137.295 62.4762 137.537 62.1383C138.068 61.3593 138.552 59.9862 138.99 58.0191C139.453 56.0257 139.662 54.3834 139.617 53.0922C139.597 52.5352 139.533 52.1445 139.424 51.9202ZM136.237 47.7729C136.487 47.6628 137.118 47.59 138.131 47.5547L138.206 47.552C141.523 47.4362 143.247 49.2645 143.379 53.0369C143.392 53.4166 143.367 54.1399 143.303 55.2068C143.181 56.8081 142.964 58.1972 142.65 59.3742C142.426 60.2185 142.318 60.7673 142.327 61.0204C142.329 61.0711 142.342 61.0959 142.368 61.0951C142.621 61.0862 143.445 60.3604 144.839 58.9175C146.233 57.4493 147.218 56.2742 147.796 55.3921C148.471 54.4053 148.992 53.7154 149.359 53.3223C149.75 52.9284 150.136 52.7248 150.516 52.7116C150.744 52.7036 150.974 52.7463 151.205 52.8396C151.538 52.9547 151.826 53.1982 152.067 53.57C152.333 53.9156 152.471 54.2656 152.484 54.6201C152.488 54.7467 152.468 54.8868 152.422 55.0405C152.33 55.2972 151.935 55.97 151.238 57.059C150.541 58.148 149.987 58.9659 149.575 59.5126C148.605 60.7632 147.17 62.1441 145.271 63.6553C143.371 65.1412 141.857 66.0812 140.73 66.4755C139.728 66.8147 138.677 67.5485 137.575 68.6769C136.498 69.7792 135.537 70.5605 134.691 71.021C133.871 71.4806 132.98 71.7272 132.018 71.7608C130.347 71.8191 129.117 71.0889 128.329 69.5702C128.002 68.9225 127.817 67.9784 127.774 66.7378C127.725 65.3453 127.864 63.8829 128.191 62.3506C128.478 61.1238 128.912 59.7778 129.495 58.3126C130.103 56.8465 130.638 55.8519 131.102 55.3287C131.493 54.9095 131.81 54.214 132.055 53.2422C132.368 52.0398 132.913 50.9308 133.688 49.9152C134.463 48.8741 135.313 48.1601 136.237 47.7729ZM157.213 46.9644C157.763 46.7424 158.253 46.6239 158.683 46.6088C159.595 46.577 160.366 46.8923 160.998 47.5546C161.917 48.4858 162.398 49.5463 162.44 50.7362C162.463 51.3945 162.317 51.9446 162.003 52.3865C161.688 52.8031 161.239 53.0215 160.657 53.0419C160.201 53.0578 159.764 52.8829 159.346 52.5173C158.927 52.1517 158.711 51.7537 158.696 51.3233C158.685 51.0194 158.591 50.8706 158.414 50.8768C158.135 50.8865 157.642 51.284 156.935 52.0692C155.595 53.6369 154.515 55.3603 153.693 57.2395C152.872 59.1186 152.486 60.7797 152.536 62.2229C152.599 64.0204 153.076 65.3346 153.967 66.1653C154.386 66.5563 154.748 66.7464 155.051 66.7358C155.102 66.7341 155.304 66.7017 155.656 66.6387C156.687 66.3999 157.953 65.6206 159.453 64.3007C160.978 62.9547 162.318 61.4123 163.474 59.6736C164.124 58.6876 164.72 57.6148 165.263 56.4552C165.831 55.2947 166.155 54.4088 166.235 53.7977C166.338 53.135 166.524 52.6342 166.791 52.2953C167.058 51.9565 167.443 51.7276 167.945 51.6086C168.247 51.5474 168.436 51.5154 168.512 51.5128C168.841 51.5013 169.165 51.6801 169.482 52.0493C169.876 52.4664 170.083 52.9282 170.1 53.4345C170.122 54.0675 169.939 54.9738 169.549 56.1534C169.158 57.3078 168.665 58.4277 168.069 59.5131C166.279 62.6935 164.203 65.3136 161.842 67.3732C159.479 69.4076 157.311 70.4593 155.336 70.5282C154.88 70.5441 154.486 70.5072 154.153 70.4174C151.572 69.8231 149.844 67.8683 148.968 64.5528C148.766 63.8501 148.651 63.119 148.625 62.3595C148.559 60.4859 149.174 58.1197 150.468 55.2608C151.364 53.3284 152.444 51.5796 153.707 50.0146C154.995 48.4233 156.163 47.4066 157.213 46.9644ZM179.61 51.3534C179.189 50.9371 178.688 50.7392 178.106 50.7595C176.865 50.8028 175.567 51.748 174.212 53.5951C173.22 54.9479 172.448 56.4071 171.894 57.9727C171.365 59.5121 171.122 60.9148 171.166 62.1807C171.197 63.0668 171.361 63.7708 171.658 64.2928C171.957 64.8654 172.234 65.1726 172.489 65.2143L172.527 65.213C172.957 65.198 173.816 64.3695 175.102 62.7276C176.387 61.0604 177.688 59.1139 179.004 56.8879C180.177 54.8951 180.757 53.7215 180.744 53.367C180.737 53.1645 180.679 52.951 180.57 52.7267C180.27 52.1288 179.95 51.671 179.61 51.3534ZM176.835 47.0396C177.136 46.953 177.452 46.904 177.781 46.8925C179.553 46.8306 181.043 47.3996 182.251 48.5995L182.999 49.3339L183.688 48.3593C183.976 47.9182 184.22 47.6309 184.418 47.4972C184.616 47.3636 184.88 47.291 185.209 47.2795C185.791 47.2592 186.266 47.42 186.632 47.7621C186.947 48.0553 187.111 48.4045 187.125 48.8096C187.15 49.5185 186.663 50.8029 185.663 52.6629C182.975 57.7252 181.67 61.3576 181.747 63.5602L181.757 63.8641C181.801 64.3949 181.864 64.7349 181.945 64.8841C182.026 65.0334 182.194 65.1163 182.448 65.1327L182.638 65.1261C183.423 65.0987 184.53 64.5024 185.96 63.3371C187.389 62.1718 188.636 60.8608 189.701 59.4041C190.306 58.5972 190.929 57.5615 191.569 56.297C192.209 55.0073 192.678 53.9262 192.977 53.0539C193.181 52.3624 193.443 51.8843 193.763 51.6196C194.059 51.3811 194.397 51.2553 194.777 51.242C195.334 51.2225 195.822 51.4083 196.241 51.7992C196.582 52.1169 196.76 52.5036 196.776 52.9593C196.801 53.6682 196.377 54.9631 195.505 56.844C193.952 60.295 191.91 63.1546 189.378 65.423C186.872 67.6906 184.543 68.8619 182.391 68.937C181.15 68.9804 180.111 68.6237 179.274 67.8672C178.75 67.3785 178.403 66.8836 178.233 66.3826L177.94 65.5944L176.506 67.0132C175.085 68.4317 173.805 69.1608 172.666 69.2006C171.729 69.2333 170.764 68.8107 169.77 67.9329C168.278 66.5655 167.493 64.7804 167.416 62.5778C167.4 62.1221 167.401 61.7798 167.418 61.5511C167.465 60.0032 167.683 58.6267 168.072 57.4217C168.896 54.8834 170.135 52.6221 171.79 50.6379C173.469 48.6274 175.15 47.428 176.835 47.0396ZM204.672 37.094C204.657 36.6636 204.561 36.4515 204.384 36.4577C204.232 36.463 204.01 36.6355 203.718 36.9753C203.085 37.7325 202.17 39.843 200.973 43.3069C199.934 46.233 199.423 47.9238 199.439 48.3795C199.442 48.4555 199.456 48.493 199.481 48.4922L199.63 48.4109C199.876 48.1995 200.394 47.4083 201.182 46.0373C201.996 44.6654 202.616 43.5284 203.04 42.6264C204.167 40.0521 204.711 38.208 204.672 37.094ZM202.367 33.1441C202.914 32.8461 203.631 32.6817 204.517 32.6507C205.479 32.6171 206.206 32.7439 206.698 33.0309C207.784 33.652 208.358 34.836 208.419 36.583C208.484 38.4565 207.978 40.6542 206.9 43.176C205.94 45.4402 204.725 47.6753 203.256 49.8813C201.786 52.0619 200.386 53.7078 199.056 54.8189L197.835 55.812L197.58 58.2925C197.493 59.4362 197.468 60.5397 197.505 61.6031C197.581 63.7804 197.796 65.2178 198.15 65.9152C198.504 66.6126 198.884 66.9542 199.289 66.9401C199.491 66.933 199.752 66.7845 200.072 66.4945C200.536 65.9967 202.016 63.727 204.511 59.6854C206.862 55.8771 208.291 53.6218 208.799 52.9197C209.116 52.5537 209.527 52.3619 210.034 52.3442C210.54 52.3265 210.989 52.4756 211.38 52.7915C211.797 53.1065 212.014 53.5172 212.032 54.0235C212.048 54.4792 210.64 57.0126 207.81 61.6235C204.98 66.2344 203.245 68.8172 202.606 69.3718C201.622 70.2427 200.548 70.6984 199.383 70.7391C197.56 70.8028 196.15 69.9775 195.152 68.2633C194.29 66.7978 193.812 64.7106 193.717 62.0015C193.615 59.09 193.95 55.6055 194.721 51.5481C195.15 49.3278 195.88 46.628 196.909 43.4488C197.938 40.2443 198.856 37.8548 199.663 36.2804C200.115 35.4281 200.523 34.7801 200.888 34.3364C201.278 33.8919 201.771 33.4944 202.367 33.1441Z" fill="#F9F9FA"/>
<path opacity="0.2" d="M208.063 30.0525L98.6241 34.1127L101.036 31.6591L98.4076 29.9029L100.097 27.4761L98.2323 23.5525L99.833 20.371L97.4758 16.976L99.5928 13.8954L98.6892 10.6717L100.231 8.34793L98.4108 6.62174L99.2282 4.06968L208.396 0.0195507L207.154 2.91009L208.988 6.8198L206.968 9.4765L209.405 12.9811L207.827 14.9534L209.662 19.9138L207.407 22.7293L209.682 26.9604L208.063 30.0525Z" fill="#99999B"/>
</svg>
