<svg width="307" height="93" viewBox="0 0 307 93" fill="none" xmlns="http://www.w3.org/2000/svg">
<rect y="26.3911" width="304.435" height="66.3692" transform="rotate(-2 0 26.3911)" fill="#874EA1"/>
<path d="M39.8772 50.9859C39.8457 50.8095 39.754 50.724 39.6021 50.7293C39.4502 50.7346 39.1268 50.9107 38.632 51.2575C37.3952 52.1372 36.303 53.8864 35.3551 56.5051C34.4317 59.0975 34.0098 61.5331 34.0893 63.8117C34.1105 64.4193 34.168 64.975 34.2616 65.4787C34.594 67.0134 35.062 68.0743 35.6656 68.6616C36.2944 69.2481 37.2418 69.5192 38.5077 69.4749L38.6596 69.4696C40.3812 69.4095 42.1771 68.5737 44.0473 66.9621C44.4898 66.5664 45.1717 65.7695 46.0932 64.5712C47.0146 63.373 47.4722 62.6853 47.466 62.5081C47.4633 62.4321 47.0752 62.2049 46.3015 61.8263C44.9602 61.1634 43.7029 60.0032 42.5297 58.3458C41.3818 56.6875 40.6503 54.9767 40.3353 53.2133C40.1777 52.3316 40.0251 51.5891 39.8772 50.9859ZM48.1692 44.5366C47.4724 44.1807 46.6176 44.0204 45.6049 44.0558C45.4276 44.062 45.264 44.093 45.1138 44.149C44.8398 44.2853 44.5514 44.739 44.2488 45.51C43.9706 46.2548 43.7833 47.0598 43.6867 47.9251C43.6294 48.4594 43.6113 49.0304 43.6325 49.638C43.6926 51.3596 44.0002 52.9078 44.5551 54.2826C44.945 55.283 45.639 56.2854 46.6374 57.2898C47.661 58.2934 48.4387 58.7858 48.9703 58.7673C49.1223 58.762 49.2344 58.7074 49.3068 58.6034C49.6463 58.1607 49.9789 57.1604 50.3047 55.6028C50.6306 54.0451 50.7971 52.6451 50.8044 51.4028C50.8 51.2762 50.7934 51.0863 50.7846 50.8331C50.801 50.5791 50.8075 50.4014 50.804 50.3001C50.6979 47.262 49.8196 45.3408 48.1692 44.5366ZM43.698 40.6242C44.1719 40.4049 44.7634 40.2828 45.4723 40.2581C46.6875 40.2157 47.8728 40.4024 49.028 40.8183C50.2845 41.2307 51.363 41.9916 52.2636 43.1008C53.1895 44.2092 53.858 45.5673 54.269 47.1753C54.4204 47.8798 54.5124 48.7004 54.5451 49.6372C54.6326 52.1436 54.4333 54.4193 53.947 56.4642C53.6341 57.6665 53.4852 58.4829 53.5002 58.9133C53.5029 58.9892 53.5295 59.0263 53.5801 59.0246C53.8586 59.0148 54.5316 58.6871 55.5991 58.0415C56.6665 57.3959 57.4948 56.7966 58.0838 56.2437C58.9941 55.4514 59.7277 55.0456 60.2847 55.0261C61.4746 54.9846 62.0904 55.5588 62.1319 56.7487C62.1461 57.1538 62.0938 57.4725 61.9752 57.7048C61.8557 57.9117 61.5751 58.2257 61.1336 58.6467C58.4797 61.0461 55.7162 62.4861 52.8433 62.9667C52.2139 63.0901 51.7883 63.2443 51.5666 63.4295C51.3694 63.5885 50.9947 64.1086 50.4424 64.9897C48.1165 68.7972 45.4038 71.3254 42.3041 72.5743C41.33 72.9886 40.0961 73.2218 38.6023 73.274C37.0073 73.3297 35.7976 73.1691 34.9733 72.7923C33.5569 72.1574 32.442 71.0809 31.6286 69.5631C30.8404 68.0443 30.4083 66.1963 30.3323 64.0189C30.3075 63.31 30.3207 62.5998 30.3719 61.8883C30.6462 58.1271 31.6561 54.7458 33.4018 51.7443C34.8333 49.1848 36.7175 47.6108 39.0544 47.0222C39.456 46.9068 39.7178 46.7836 39.84 46.6525C39.9866 46.4953 40.1143 46.1613 40.2233 45.6506C40.7958 43.1717 41.954 41.4963 43.698 40.6242ZM62.2057 49.0274C61.969 48.7822 61.6354 48.6671 61.205 48.6822C60.6733 48.7007 60.1601 48.8834 59.6652 49.2302C59.1948 49.5508 58.9671 49.9263 58.9821 50.3568C58.991 50.6099 59.2587 51.0188 59.7854 51.5835C60.3365 52.1219 60.726 52.3871 60.9539 52.3792L61.0298 52.3765C61.1302 52.3477 61.4037 51.8311 61.8503 50.8269C62.2035 50.0541 62.3766 49.5665 62.3695 49.3639C62.3669 49.288 62.3123 49.1758 62.2057 49.0274ZM58.7704 45.3831C59.3701 45.134 60.1003 44.9945 60.9611 44.9644C61.9992 44.9282 62.84 45.0509 63.4835 45.3326C65.1548 46.0093 66.0223 47.2592 66.086 49.0821C66.1001 49.4871 66.0763 49.8936 66.0145 50.3013C65.8473 51.3211 65.6791 51.948 65.5098 52.1821C65.1992 52.7252 65.0475 53.0981 65.0546 53.3006C65.0643 53.5791 65.3787 53.8723 65.9978 54.1802C67.264 54.8711 67.9175 55.7989 67.9582 56.9635C67.9643 57.1407 67.9565 57.2804 67.9348 57.3826C67.7361 58.226 67.2779 59.6235 66.5602 61.5751C65.1276 65.5542 64.4302 68.0881 64.4683 69.1768C64.4727 69.3033 64.488 69.3789 64.5142 69.4033C64.5404 69.4277 64.5788 69.4391 64.6295 69.4373C65.0092 69.424 65.9881 68.7815 67.566 67.5096C69.9066 65.5774 71.9004 62.0604 73.5474 56.9585C73.958 55.6513 74.3204 54.7768 74.6345 54.3349C74.9739 53.8921 75.4095 53.6615 75.9411 53.6429C77.1058 53.6022 77.7097 54.2022 77.753 55.4428C77.7707 55.9491 77.6762 56.5101 77.4696 57.1257C77.4225 57.2287 77.273 57.6649 77.021 58.4341C76.7681 59.1781 76.5737 59.7806 76.4377 60.2416C74.4149 66.1931 71.2261 70.3349 66.8715 72.667C65.6766 73.2918 64.6614 73.6187 63.8259 73.6479C62.8638 73.6815 62.105 73.3658 61.5495 72.7008C60.9939 72.0358 60.6936 71.0576 60.6485 69.7664C60.5822 67.8676 61.3469 64.723 62.9427 60.3326C63.4746 58.8692 63.7357 57.9982 63.726 57.7197C63.7154 57.4159 63.5817 57.2177 63.325 57.1253C63.0927 57.0067 62.5806 56.8598 61.7887 56.6847C61.6865 56.6629 61.597 56.6407 61.5202 56.618C60.3449 56.3548 59.4216 56.0449 58.75 55.6881C57.6393 55.0932 56.789 54.337 56.1993 53.4197C55.6096 52.5024 55.2966 51.5248 55.2604 50.4867C55.2224 49.3981 55.5044 48.3996 56.1064 47.4914C56.7075 46.5578 57.5955 45.8551 58.7704 45.3831ZM81.9317 75.4491C82.1907 74.8824 82.3189 74.5611 82.3163 74.4851C82.3136 74.4091 82.2743 74.3725 82.1984 74.3752C82.0971 74.3787 81.5621 74.6635 80.5932 75.2297C78.9043 76.2266 77.7524 77.3568 77.1374 78.6204C76.854 79.2133 76.7153 79.5984 76.7215 79.7756C76.7295 80.0034 76.9613 80.1094 77.417 80.0935C78.1006 80.0696 78.8704 79.6118 79.7265 78.7201C80.5826 77.8283 81.3176 76.738 81.9317 75.4491ZM87.1796 52.604C86.9403 52.2829 86.7066 52.1263 86.4788 52.1342C86.2509 52.1422 85.8158 52.3855 85.1735 52.8642C83.9883 53.7675 82.5939 55.5779 80.9905 58.2955C79.4123 61.0122 78.6414 62.8896 78.6776 63.9277C78.6953 64.434 78.7928 64.6841 78.97 64.6779C79.0713 64.6744 79.2218 64.6311 79.4217 64.5481C81.1527 64.0313 83.3011 61.6749 85.8669 57.4788C87.0447 55.6379 87.6213 54.363 87.5965 53.6541C87.5832 53.2744 87.4443 52.9243 87.1796 52.604ZM84.0128 49.0264C84.8586 48.5659 85.6486 48.3229 86.3828 48.2972C87.117 48.2716 87.8588 48.4612 88.608 48.8659L89.6939 49.4744L90.0891 48.8142C90.3535 48.3994 90.8274 48.18 91.511 48.1562C92.7769 48.112 93.4271 48.5836 93.4616 49.571C93.4801 50.1026 93.3534 50.8295 93.0815 51.7516C93.0361 51.9052 92.5559 53.7598 91.6407 57.3152C90.9949 59.8727 90.4249 62.0599 89.9307 63.8769C89.5498 65.3097 89.366 66.216 89.3793 66.5958C89.381 66.6464 89.4072 66.6709 89.4579 66.6691C89.711 66.6603 90.3996 66.0532 91.5236 64.8479C92.6466 63.6173 93.6431 62.3911 94.513 61.1693C96.881 57.842 98.3047 55.4222 98.7843 53.9098C99.1775 52.8315 99.7539 52.279 100.513 52.2525C100.691 52.2463 100.83 52.2541 100.933 52.2759C101.928 52.4693 102.442 53.0343 102.475 53.9711C102.538 55.794 100.548 59.425 96.5052 64.8641C95.2461 66.5557 94.1117 67.8247 93.102 68.6711C92.3636 69.3053 91.3743 70.0116 90.1341 70.79C88.9183 71.5422 88.1585 71.9237 87.8546 71.9343C87.6521 71.9413 87.3424 72.5098 86.9256 73.6397C86.5079 74.7443 85.8938 76.0332 85.0834 77.5064C84.2992 79.004 83.6405 80.1043 83.1074 80.8073C82.5752 81.5357 81.6994 82.2253 80.48 82.8763C79.3602 83.4731 78.4584 83.7834 77.7749 83.8073C77.4204 83.8197 77.1161 83.8176 76.8621 83.8011C75.8729 83.785 75.1076 83.6469 74.5662 83.387C74.051 83.1515 73.6436 82.7348 73.3439 82.1369C73.1001 81.6891 72.9658 81.1108 72.9411 80.4019C72.9075 79.4398 73.0777 78.5086 73.4519 77.6084C74.1042 75.9633 75.0949 74.5725 76.4241 73.4361C77.7794 72.3241 79.694 71.256 82.1678 70.2317C83.3924 69.7327 84.1025 69.3783 84.298 69.1687C84.469 68.9853 84.7485 68.2784 85.1365 67.0481C85.5497 65.817 85.7515 65.0621 85.7418 64.7836C85.74 64.733 85.7138 64.7086 85.6632 64.7103C85.4606 64.7174 85.016 65.0498 84.3292 65.7075C83.4696 66.498 82.5671 67.1505 81.6218 67.6652C80.701 68.1536 79.8988 68.4098 79.2152 68.4336C78.1256 68.4463 77.1647 68.1504 76.3325 67.5457C75.5246 66.9148 75.0144 66.0962 74.8018 65.0896C74.773 64.9892 74.755 64.8378 74.7479 64.6352C74.7134 63.6478 75.0441 62.2294 75.74 60.38C76.4612 58.5297 77.3505 56.7749 78.4079 55.1157C79.1521 53.9237 80.0857 52.7123 81.2088 51.4817C82.3572 50.2502 83.2919 49.4318 84.0128 49.0264ZM111.24 54.0072C110.624 53.0655 109.949 52.6074 109.214 52.6331C108.379 52.6622 107.375 53.3057 106.202 54.5634C103.71 57.236 102.382 60.2355 102.22 63.5618C102.222 63.6378 102.214 63.7522 102.194 63.905C102.199 64.0569 102.202 64.1581 102.204 64.2088C102.231 64.9683 102.355 65.6357 102.578 66.2109C102.826 66.7853 103.117 67.1173 103.45 67.2071L103.526 67.2045C103.855 67.193 104.433 66.7038 105.261 65.737C106.115 64.7693 107.059 63.5069 108.095 61.9498C110.67 58.0322 111.95 55.8329 111.933 55.3518C111.928 55.1999 111.697 54.7517 111.24 54.0072ZM135.254 47.0089C135.581 46.9214 135.934 46.8711 136.313 46.8578C137.427 46.8189 138.246 47.0438 138.77 47.5325C139.685 48.3117 140.164 49.3343 140.208 50.6001C140.262 52.1445 139.686 54.8643 138.478 58.7595C137.429 62.1168 136.919 64.1879 136.946 64.9728C136.961 65.4032 137.12 65.6131 137.424 65.6025C137.779 65.5901 138.384 65.1507 139.241 64.2842C140.097 63.3925 140.887 62.4143 141.61 61.3498C142.478 60.052 143.394 58.3597 144.361 56.2727C145.304 54.2372 145.898 53.1138 146.144 52.9024C146.292 52.7705 146.581 52.697 147.011 52.682C147.72 52.6572 148.245 52.8037 148.585 53.1213C148.9 53.4145 149.064 53.751 149.077 54.1308C149.1 54.7891 148.604 56.1879 147.589 58.3273C146.292 61.1102 144.816 63.5065 143.163 65.5161C141.534 67.4995 140.055 68.7172 138.728 69.1691C138.177 69.3658 137.623 69.4739 137.066 69.4933C136.18 69.5243 135.411 69.285 134.759 68.7754C133.743 67.9744 133.211 66.9029 133.164 65.5611C133.104 63.8395 133.862 60.4923 135.437 55.5197C136.1 53.4433 136.419 52.0506 136.394 51.3417C136.381 50.962 136.26 50.776 136.032 50.784C135.855 50.7902 135.569 50.9396 135.173 51.2323C134.407 51.7913 133.277 53.1743 131.782 55.3811C130.312 57.5618 129.031 59.7105 127.939 61.8272C126.612 64.4844 125.518 67.2857 124.658 70.2308C124.5 70.794 124.348 71.1668 124.203 71.3494C124.082 71.531 123.847 71.6787 123.496 71.7923C123.245 71.8771 122.993 71.9239 122.74 71.9328C121.905 71.9619 121.349 71.6518 121.073 71.0024C120.991 70.8278 120.945 70.614 120.936 70.3608C120.922 69.9557 121.015 69.3441 121.214 68.5259C121.413 67.6825 121.506 67.0836 121.494 66.7291C121.488 66.5519 121.178 66.7655 120.566 67.3699C118.161 69.6592 115.795 70.8445 113.465 70.9258C112.782 70.9497 112.158 70.8574 111.593 70.649C111.181 70.486 110.713 70.1348 110.187 69.5954C109.661 69.0561 109.394 68.6599 109.385 68.4067C109.382 68.3054 109.299 68.1309 109.139 67.883C109.112 67.8332 109.06 67.8097 108.984 67.8123C108.807 67.8185 108.326 68.2029 107.541 68.9654C106.122 70.4092 104.804 71.1523 103.589 71.1947C103.336 71.2035 103.145 71.1975 103.018 71.1766C102.305 71.0748 101.541 70.6325 100.728 69.8497C99.9403 69.0661 99.3655 68.2116 99.0036 67.2863C98.6697 66.4361 98.4842 65.4794 98.4471 64.416C98.3516 61.6817 99.0881 58.8169 100.657 55.8217C102.249 52.8002 104.167 50.7307 106.409 49.6131C107.331 49.15 108.235 48.903 109.121 48.872C110.792 48.8137 112.258 49.4089 113.518 50.6577L114.11 51.2834L114.797 50.2708C115.087 49.8551 115.331 49.5804 115.529 49.4467C115.727 49.3131 116.004 49.2401 116.358 49.2277C116.839 49.2109 117.276 49.3857 117.669 49.7522C118.087 50.1179 118.305 50.5412 118.322 51.0222C118.335 51.402 117.7 52.8057 116.416 55.2333C113.921 60.01 112.711 63.487 112.787 65.6643C112.814 66.4238 112.855 66.866 112.91 66.9908C112.99 67.1148 113.208 67.1706 113.562 67.1582C114.929 67.1104 116.786 65.8289 119.131 63.3135C120.328 62.0043 121.225 60.8576 121.825 59.8734C122.449 58.8883 123.076 57.5863 123.704 55.9674C123.914 55.4531 124.101 55.0156 124.266 54.655C124.43 54.269 124.536 54.0245 124.583 53.9215C124.654 53.7923 124.724 53.6124 124.792 53.3819C124.885 53.1251 124.976 52.8305 125.065 52.4978C125.155 52.1651 125.276 51.6412 125.429 50.9261C125.735 49.5213 126.044 48.5852 126.357 48.118C126.67 47.6255 127.117 47.3564 127.698 47.3107C128.052 47.2984 128.452 47.4999 128.898 47.9152C129.316 48.2809 129.536 48.7675 129.557 49.3751C129.572 49.8055 129.499 50.2517 129.338 50.7136C129.201 51.1493 129.136 51.4684 129.143 51.671C129.148 51.8229 129.202 51.8971 129.303 51.8935C129.505 51.8865 129.971 51.4139 130.698 50.476C132.202 48.5223 133.72 47.3666 135.254 47.0089ZM148.01 43.9778C148.452 43.5822 149.003 43.3728 149.661 43.3498C150.167 43.3322 150.665 43.4415 151.155 43.6779C151.567 43.8663 151.842 44.0975 151.978 44.3716C152.139 44.6195 152.23 45.0472 152.251 45.6549C152.277 46.3891 152.058 47.0178 151.594 47.5409C151.131 48.0641 150.545 48.338 149.836 48.3628C149.709 48.3672 149.519 48.3485 149.264 48.3067C148.065 48.0951 147.442 47.331 147.397 46.0145C147.376 45.4322 147.4 45.0131 147.467 44.7573C147.534 44.5014 147.715 44.2416 148.01 43.9778ZM147.436 49.3211C147.756 49.0565 148.144 48.9162 148.6 48.9002C149.486 48.8693 150.082 49.2414 150.388 50.0165C150.446 50.2173 150.476 50.3683 150.48 50.4696C150.498 50.976 150.289 51.8958 149.854 53.2291C149.104 55.7141 148.505 58.1685 148.058 60.5923C147.634 62.9899 147.446 64.8469 147.492 66.1634C147.518 66.923 147.625 67.4262 147.811 67.6732C148.049 67.9691 148.344 68.0602 148.695 67.9465C149.42 67.6677 150.737 66.1769 152.645 63.474C154.578 60.7448 156.28 57.9604 157.753 55.1206C158.466 53.7776 159.004 52.8589 159.367 52.3646C159.709 51.9724 160.196 51.7653 160.829 51.7432C161.36 51.7246 161.783 51.862 162.098 52.1552C162.411 52.4231 162.575 52.7595 162.589 53.1646C162.615 53.8988 162.091 55.2226 161.017 57.1359C158.561 61.5817 156.497 64.8984 154.824 67.0861C153.152 69.2738 151.58 70.7355 150.111 71.4713C149.363 71.8523 148.749 72.0511 148.268 72.0679C147.813 72.0839 147.34 71.9863 146.851 71.7752C144.847 71.0087 143.791 69.081 143.683 65.9922C143.576 62.9288 144.349 58.5545 146.001 52.8694C146.636 50.7432 147.115 49.5605 147.436 49.3211ZM172.66 67.0336C172.656 66.907 172.64 66.8062 172.612 66.7311C172.608 66.6298 172.581 66.5674 172.529 66.5439C172.502 66.4941 172.476 66.4697 172.45 66.4706C172.223 66.5039 171.238 66.9439 169.493 67.7906C167.772 68.6112 166.639 69.1957 166.094 69.5443C164.929 70.2948 163.982 71.1263 163.253 72.039C162.525 72.9769 162.174 73.8004 162.199 74.5093C162.203 74.6358 162.234 74.7995 162.292 75.0003C162.653 75.9003 163.618 76.3228 165.188 76.268C166.277 76.23 167.328 75.8637 168.344 75.1692C169.359 74.5 170.202 73.596 170.872 72.4573C171.28 71.784 171.678 70.8322 172.065 69.6019C172.479 68.3708 172.677 67.5146 172.66 67.0336ZM165.254 47.6723C166 47.266 166.779 47.0487 167.589 47.0204C169.285 46.9612 170.524 47.6023 171.306 48.9438C171.629 49.4902 171.807 50.2318 171.84 51.1686C171.89 52.6117 171.619 53.9139 171.026 55.0754C170.644 55.7478 170.457 56.1979 170.465 56.4258C170.468 56.527 170.508 56.5763 170.584 56.5737C170.788 56.6173 171.274 56.7397 172.042 56.941C172.834 57.1162 173.676 57.6444 174.568 58.5258C175.461 59.4072 175.911 59.9618 175.919 60.1897C175.925 60.3416 175.991 60.4153 176.117 60.4109C176.775 60.3879 178.058 59.3546 179.963 57.3108C181.283 55.8959 182.284 54.4287 182.966 52.9093C183.625 51.4668 184.075 50.5765 184.317 50.2386C184.584 49.8997 184.958 49.7219 185.439 49.7051C185.971 49.6865 186.42 49.8483 186.787 50.1903C187.179 50.5315 187.384 50.9553 187.402 51.4616C187.42 51.9933 187.088 52.9935 186.404 54.4623C185.745 55.9302 185.041 57.1842 184.292 58.2243C183.638 59.109 182.771 60.0392 181.69 61.0148C180.608 61.9905 179.534 62.8011 178.467 63.4468C178.318 63.5534 178.132 63.6739 177.909 63.8085C177.71 63.9168 177.561 64.0107 177.462 64.0902C177.388 64.1435 177.289 64.2103 177.165 64.2907C177.041 64.3711 176.955 64.4501 176.907 64.5279C176.885 64.6047 176.837 64.6951 176.765 64.799C176.718 64.902 176.685 65.0426 176.665 65.2207C176.645 65.3735 176.626 65.539 176.607 65.7171C176.588 65.8952 176.558 66.137 176.518 66.4426C176.205 70.56 174.852 73.9153 172.459 76.5084C170.335 78.8386 167.944 80.0501 165.285 80.143C163.918 80.1907 162.64 79.8931 161.452 79.2502C159.462 78.179 158.434 76.6686 158.366 74.7192C158.295 72.6937 159.276 70.6569 161.308 68.6087C162.337 67.5842 163.385 66.7491 164.453 66.1035C165.519 65.4325 167.076 64.6557 169.124 63.773C170.497 63.1674 171.382 62.7436 171.78 62.5016C172.202 62.2587 172.41 62.0486 172.404 61.8714C172.386 61.365 172.057 61.009 171.416 60.8032C170.8 60.5713 169.818 60.4154 168.472 60.3357C167.127 60.2813 166.146 60.1381 165.529 59.9061C164.938 59.6733 164.57 59.3059 164.426 58.804C164.367 58.5526 164.335 58.3636 164.33 58.237C164.305 57.5281 164.773 56.7513 165.732 55.9066C166.42 55.2996 166.991 54.5825 167.444 53.7556C167.896 52.9033 168.111 52.1733 168.09 51.5657C168.072 51.0593 167.899 50.8119 167.569 50.8234C167.266 50.834 166.917 51.011 166.523 51.3542C166.154 51.6713 165.734 52.3324 165.262 53.3375C164.789 54.3172 164.5 55.1258 164.396 55.7632C164.312 56.2731 164.099 56.6861 163.755 57.0023C163.436 57.3176 163.062 57.4828 162.631 57.4978C162.125 57.5155 161.675 57.3284 161.281 56.9366C160.94 56.6189 160.762 56.2196 160.745 55.7386C160.734 55.4348 160.738 55.1811 160.756 54.9777C160.839 53.7074 161.348 52.3208 162.284 50.8179C163.219 49.2896 164.209 48.2411 165.254 47.6723ZM239.136 61.4042C238.702 60.5829 238.434 60.174 238.332 60.1775C238.155 60.1837 238.008 60.6958 237.892 61.7138C237.774 62.7065 237.731 63.6333 237.761 64.4941C237.784 65.1523 237.848 65.5303 237.952 65.6281C238.005 65.677 238.069 65.7001 238.145 65.6974C238.575 65.6824 239.308 65.2385 240.342 64.3659L241.191 63.6518L240.488 63.1061C240.019 62.7422 239.568 62.1749 239.136 61.4042ZM194.581 51.8573C194.216 51.5406 193.767 51.3915 193.235 51.41C192.324 51.4419 191.294 52.0862 190.147 53.343C187.657 56.0916 186.355 59.1028 186.241 62.3768C186.225 62.6309 186.224 62.9604 186.238 63.3655C186.26 63.9985 186.418 64.5379 186.713 64.9839C187.063 65.5801 187.353 65.8995 187.583 65.9422L187.621 65.9408C188.026 65.9267 188.835 65.138 190.048 63.5747C191.26 62.0114 192.514 60.1552 193.808 58.0061C195.077 55.8831 195.744 54.6558 195.808 54.324C195.831 54.2472 195.841 54.1708 195.838 54.0948C195.831 53.8923 195.719 53.592 195.503 53.194C195.123 52.4721 194.815 52.0266 194.581 51.8573ZM245.688 49.7685C245.598 49.3913 245.489 49.167 245.36 49.0955C245.255 48.9978 245 48.956 244.595 48.9701C243.532 49.0072 242.626 49.9134 241.876 51.6886C241.523 52.4614 241.368 53.4681 241.411 54.7087L241.433 55.3163C241.516 57.6962 241.964 59.2649 242.776 60.0223L243.364 60.5341L243.863 59.5661C244.432 58.4562 244.902 57.0203 245.271 55.2584C245.666 53.4955 245.842 52.0064 245.799 50.7912C245.783 50.3101 245.745 49.9692 245.688 49.7685ZM213.146 46.6843C213.627 45.9324 213.866 45.5058 213.862 45.4045C213.858 45.3032 213.692 45.2583 213.363 45.2698C212.907 45.2858 212.644 45.3583 212.572 45.4876C212.335 45.9521 212.233 46.6655 212.267 47.6275C212.271 47.7541 212.286 47.817 212.311 47.8161C212.387 47.8134 212.666 47.4362 213.146 46.6843ZM217.915 34.0841C217.933 33.8554 217.936 33.5765 217.924 33.2473C217.909 32.8169 217.826 32.6044 217.674 32.6097C217.471 32.6168 217.138 32.8819 216.675 33.405C216.188 33.9797 215.537 35.2952 214.721 37.3516C213.905 39.3827 213.507 40.6767 213.526 41.2337C213.53 41.335 213.545 41.3978 213.571 41.4222C213.597 41.4467 213.686 41.4562 213.838 41.4509C213.99 41.4456 214.318 41.4088 214.823 41.3405C215.351 41.2207 215.689 41.1075 215.838 41.0009C216.01 40.8681 216.178 40.5961 216.341 40.1848C217.273 37.8202 217.797 35.7866 217.915 34.0841ZM216.82 28.8372C217.045 28.7533 217.347 28.7047 217.727 28.6914C217.98 28.6826 218.171 28.6886 218.298 28.7095C220.435 28.9391 221.554 30.4716 221.653 33.3073C221.711 34.9782 221.386 36.9161 220.677 39.1208C220.382 40.1197 220.239 40.7331 220.247 40.961C220.255 41.1888 220.336 41.3381 220.491 41.4087C220.67 41.4785 220.976 41.5059 221.406 41.4908C221.963 41.4714 222.511 41.5537 223.05 41.7376C223.588 41.9216 223.925 42.138 224.061 42.3867C224.248 42.659 224.349 43.0104 224.364 43.4408C224.384 44.0231 224.235 44.4593 223.915 44.7493C223.597 45.0646 223.172 45.2315 222.64 45.2501C222.564 45.2527 221.841 45.2273 220.47 45.1738L218.411 45.0175L218.019 45.7537C216.061 49.2187 214.283 51.6636 212.685 53.0883C212.146 53.6141 211.776 54.2734 211.576 55.0662C211.374 55.8337 211.301 57.0023 211.356 58.572C211.383 59.3315 211.416 59.9261 211.456 60.3556C211.671 63.5927 212.084 65.6189 212.695 66.434C212.829 66.6322 213.022 66.7268 213.275 66.718C214.06 66.6906 215.649 65.0127 218.043 61.6845C221.257 57.1869 223.26 53.5555 224.05 50.7902C224.599 49.0727 225.007 48.0698 225.276 47.7816C225.57 47.4925 225.958 47.3396 226.439 47.3228C226.92 47.306 227.343 47.4433 227.708 47.7347C228.073 48.0262 228.263 48.3997 228.279 48.8555C228.298 49.3871 227.934 50.9461 227.188 53.5324C225.855 58.1924 225.234 61.8263 225.325 64.434C225.356 65.3202 225.492 65.9365 225.732 66.283C225.917 66.5046 226.048 66.6142 226.124 66.6115C226.226 66.6333 226.413 66.538 226.684 66.3258C228.885 64.7533 232.045 60.1562 236.164 52.5345C236.904 51.2159 237.424 50.5006 237.724 50.3888C238.149 50.1965 238.635 49.6092 239.184 48.6267C239.734 47.695 240.404 46.9111 241.193 46.2752C241.687 45.9031 242.097 45.6606 242.422 45.5479C242.772 45.4089 243.314 45.3139 244.047 45.263L244.541 45.2457C246.541 45.1759 247.948 45.8999 248.762 47.4178C249.196 48.2391 249.433 49.2321 249.474 50.3967L249.496 51.0423C249.538 52.9674 249.205 55.3872 248.495 58.3017L248.366 58.9526L249.069 58.3957C249.933 57.7318 250.841 56.8889 251.794 55.8671C252.746 54.8199 253.486 53.8561 254.013 52.9759C255.092 51.2145 255.961 50.3223 256.619 50.2993C256.948 50.2878 257.334 50.4518 257.777 50.7912C258.247 51.1804 258.489 51.5901 258.504 52.0206C258.526 52.6535 258.019 53.7485 256.984 55.3056C255.997 56.8103 255.161 57.9042 254.475 58.5872C251.262 61.6652 248.64 63.5312 246.609 64.1851C245.832 64.4404 244.856 65.1589 243.681 66.3406C241.696 68.3111 239.932 69.3233 238.388 69.3772C237.881 69.3949 237.307 69.2882 236.665 69.0571C235.971 68.7771 235.451 68.4024 235.105 67.9329C234.76 67.4886 234.43 66.7524 234.115 65.7241L233.719 64.1789L232.189 66.0955C231.364 67.1383 230.458 68.0445 229.47 68.814C228.483 69.5836 227.625 70.0445 226.895 70.1968C226.644 70.2562 226.429 70.2891 226.252 70.2953C225.847 70.3094 225.452 70.2598 225.068 70.1465C223.123 69.6061 221.976 67.9731 221.627 65.2476L221.413 63.468L219.668 65.7723C218.386 67.5154 217.263 68.746 216.299 69.4641C215.361 70.1813 214.347 70.5589 213.259 70.5969C211.36 70.6632 209.912 69.497 208.916 67.0983C208.53 66.1993 208.27 65.2958 208.137 64.3879C207.95 63.3805 207.818 62.8781 207.742 62.8807C207.514 62.8887 206.888 63.4682 205.864 64.6193C204.474 66.1888 203.033 67.3925 201.541 68.2304C200.076 69.0927 198.71 69.546 197.444 69.5902C195.621 69.6539 194.327 68.9006 193.563 67.3303C193.209 66.6329 193.007 66.2851 192.956 66.2868C192.88 66.2895 192.402 66.7625 191.523 67.7057C190.154 69.1477 188.887 69.8891 187.722 69.9297C186.836 69.9607 185.936 69.5865 185.021 68.8073C184.132 68.0272 183.509 67.2504 183.153 66.4771C182.821 65.7028 182.631 64.6068 182.582 63.189L182.571 62.8852C182.513 61.2142 182.687 59.6872 183.095 58.3041C183.733 56.2286 184.704 54.2808 186.009 52.4609C187.339 50.6147 188.688 49.3255 190.057 48.5932C191.127 48.0235 192.181 47.7206 193.219 47.6843C194.814 47.6286 196.189 48.1763 197.345 49.3273L198.093 50.0617L198.742 49.0504C199.032 48.6347 199.263 48.3605 199.436 48.2277C199.634 48.094 199.91 48.021 200.265 48.0086C200.796 47.9901 201.258 48.1387 201.649 48.4546C202.04 48.7705 202.244 49.1563 202.26 49.612C202.277 50.093 201.774 51.302 200.751 53.2388C198.043 58.4285 196.726 62.0867 196.8 64.2134L196.812 64.5552C196.881 65.0851 196.944 65.4251 197 65.5753C197.081 65.7245 197.249 65.8074 197.503 65.8239L197.579 65.8212C198.034 65.8053 198.661 65.5933 199.458 65.1853C200.405 64.7213 201.598 63.7036 203.039 62.1324C204.504 60.535 205.618 59.0385 206.381 57.6431C206.928 56.6353 207.27 55.8883 207.405 55.4019C207.539 54.8903 207.691 53.7823 207.859 52.0781C207.88 51.9506 208.065 50.3345 208.412 47.2298C208.56 46.3881 208.633 45.9167 208.629 45.8154C208.626 45.7394 208.207 45.716 207.372 45.7452C205.929 45.7956 205.004 45.435 204.596 44.6634C204.408 44.3405 204.309 44.0651 204.301 43.8372C204.293 43.584 204.457 43.2107 204.795 42.7173C205.134 42.2745 205.608 42.0425 206.215 42.0213C206.798 42.001 207.492 41.926 208.299 41.7965L209.469 41.5655L210.145 39.1464C210.598 37.5843 211.164 36.0183 211.844 34.4482C212.55 32.8773 213.182 31.7399 213.74 31.036C214.591 29.9923 215.618 29.2594 216.82 28.8372ZM226.407 42.0766C226.782 41.9115 227.159 41.8223 227.539 41.809C228.222 41.7851 228.812 41.98 229.308 42.3936C229.83 42.8063 230.102 43.3418 230.125 44.0001C230.148 44.6584 229.878 45.2888 229.316 45.8915C228.803 46.4417 228.344 46.7239 227.939 46.738C227.711 46.746 227.534 46.7395 227.406 46.7186C226.694 46.6421 226.18 46.4446 225.864 46.1261C225.549 45.8075 225.379 45.2938 225.354 44.5849L225.345 44.3191C225.347 43.6346 225.418 43.1378 225.559 42.8287C225.701 42.5196 225.983 42.2689 226.407 42.0766ZM265.997 42.7854C266.298 42.6989 266.664 42.6481 267.094 42.633C268.132 42.5968 268.911 42.7471 269.429 43.0838C269.816 43.2731 270.184 43.6532 270.534 44.224C270.828 44.67 270.987 45.2221 271.01 45.8804C271.028 46.3867 271.03 46.8176 271.017 47.1729C270.999 48.1114 270.892 49.0277 270.695 49.9218C270.498 50.8159 270.057 52.3396 269.371 54.4928C268.324 57.8754 267.813 59.9465 267.839 60.706C267.854 61.1365 268.026 61.3459 268.356 61.3344C269.039 61.3105 270.167 60.2192 271.739 58.0603C273.336 55.8753 274.615 53.6633 275.576 51.4244C276.138 50.0866 276.553 49.261 276.82 48.9474C277.113 48.6077 277.537 48.4281 278.094 48.4087C278.626 48.3901 279.075 48.5392 279.441 48.8559C279.807 49.1727 279.998 49.5716 280.015 50.0526C280.032 50.5337 279.521 51.8823 278.483 54.0986C277.445 56.3148 276.552 57.9683 275.805 59.0591C274.91 60.2817 273.899 61.4704 272.773 62.625C272.064 63.3596 271.499 63.8863 271.079 64.2051C270.659 64.4986 270.173 64.7437 269.622 64.9404C269.071 65.1118 268.542 65.2063 268.035 65.224C266.465 65.2788 265.275 64.5852 264.464 63.1433C264.222 62.7462 264.087 62.1425 264.059 61.3324C264.006 59.8133 264.309 57.9649 264.968 55.7873C265.335 54.6844 265.87 52.9547 266.574 50.5981C267.099 48.9321 267.35 47.7826 267.328 47.1496C267.314 46.7445 267.193 46.546 266.965 46.5539C266.281 46.5778 264.949 47.9805 262.967 50.762C261.01 53.5173 259.42 56.2345 258.195 58.9135C257.558 60.2793 256.908 61.9877 256.245 64.0387C255.742 65.6279 255.346 66.6177 255.056 67.008C254.79 67.3975 254.354 67.6029 253.746 67.6241C253.215 67.6427 252.832 67.58 252.599 67.436C252.367 67.3174 252.154 67.046 251.962 66.6218C251.85 66.3215 251.793 66.1334 251.79 66.0574C251.777 65.6776 252.46 62.726 253.839 57.2025C254.905 52.9067 255.613 49.9415 255.961 48.307C256.025 47.9499 256.111 47.5033 256.219 46.9672C256.352 46.4302 256.463 45.9828 256.552 45.6248C256.64 45.2415 256.694 44.9734 256.714 44.8206C256.824 44.3352 257.064 43.9466 257.434 43.6548C257.828 43.3368 258.241 43.1703 258.671 43.1553C259.405 43.1297 259.936 43.4533 260.264 44.1263C260.372 44.3253 260.432 44.5894 260.444 44.9185C260.459 45.3489 260.412 45.8195 260.303 46.3303C260.175 47.0192 260.117 47.5282 260.128 47.8573C260.135 48.0599 260.575 47.5882 261.448 46.4424C261.497 46.39 261.545 46.325 261.593 46.2472C263.023 44.3722 264.491 43.2182 265.997 42.7854Z" fill="#F9F9FA"/>
<path opacity="0.2" d="M208.063 30.0525L98.6241 34.1127L101.036 31.6591L98.4076 29.9029L100.097 27.4761L98.2323 23.5525L99.833 20.371L97.4758 16.976L99.5928 13.8954L98.6892 10.6717L100.231 8.34793L98.4108 6.62174L99.2282 4.06968L208.396 0.0195507L207.154 2.91009L208.988 6.8198L206.968 9.4765L209.405 12.9811L207.827 14.9534L209.662 19.9138L207.407 22.7293L209.682 26.9604L208.063 30.0525Z" fill="#99999B"/>
</svg>
